Source: Independence.Day.1996.BluRay.720p.x264.DTS.AC3.DualAudio-MySilu

Subs: Arabic, Brazilian, Bulgarian, Croatian, Czech, Danish, Dutch, English (Hearing Impaired), English, Finnish, Hungarian, Indonesian, Italian, Persian, Portuguese, Romanian, Russian, Slovenian, Spanish, Swedish, Turkish and Vietnamese.

Sample and Screens included.

General
Complete name                    : Independence Day-720p MP4 AAC x264 BRRip 1996-CC.mp4
Format                           : MPEG-4
Format profile                   : Base Media
Codec ID                         : isom
File size                        : 2.49 GiB
Duration                         : 2h 24mn
Overall bit rate                 : 2 463 Kbps
Encoded date                     : UTC 2012-04-25 13:05:54


Video
ID                               : 1
Format                           : AVC
Format/Info                      : Advanced Video Codec
Format profile                   : High@L3.1
Format settings, CABAC           : Yes
Format settings, ReFrames        : 5 frames
Codec ID                         : avc1
Codec ID/Info                    : Advanced Video Coding
Duration                         : 2h 24mn
Bit rate mode                    : Variable
Bit rate                         : 2 075 Kbps
Nominal bit rate                 : 2 112 Kbps
Maximum bit rate                 : 21.1 Mbps
Width                            : 1 280 pixels
Height                           : 544 pixels
Display aspect ratio             : 2.35:1
Frame rate mode                  : Variable
Frame rate                       : 23.976 fps
Minimum frame rate               : 19.048 fps
Maximum frame rate               : 24.390 fps
Resolution                       : 24 bits
Colorimetry                      : 4:2:0
Scan type                        : Progressive
Bits/(Pixel*Frame)               : 0.124
Stream size                      : 2.10 GiB (84%)
Writing library                  : x264 core 112

Audio
ID                               : 2
Format                           : AAC
Format/Info                      : Advanced Audio Codec
Format version                   : Version 4
Format profile                   : LC
Format settings, SBR             : No
Codec ID                         : 40
Duration                         : 2h 24mn
Bit rate mode                    : Variable
Bit rate                         : 384 Kbps
Maximum bit rate                 : 627 Kbps
Channel(s)                       : 6 channels
Channel positions                : Front: L C R, Rear: L R, LFE
Sampling rate                    : 48.0 KHz
Resolution                       : 16 bits
Stream size                      : 397 MiB (16%)
Language                         : English


Enjoy...

Requested by eidref.